<mxfile host="app.diagrams.net" modified="2024-06-21T14:03:45.715Z" agent="Mozilla/5.0 (Windows NT 10.0; WOW64) AppleWebKit/537.36 (KHTML, like Gecko) Chrome/86.0.4240.198 Safari/537.36" version="24.6.1" etag="bdeIeYRon7tsl4ruHM7B" type="github">
  <diagram name="第 1 页" id="lqjgXqs5s56eW6SJBvFB">
    <mxGraphModel>
      <root>
        <mxCell id="0" />
        <mxCell id="1" parent="0" />
      </root>
    </mxGraphModel>
  </diagram>
</mxfile>
